<svg width="28" height="28" viewBox="0 0 28 28" fill="none" xmlns="http://www.w3.org/2000/svg">
<path d="M14.0003 11.6667C12.717 11.6667 11.667 12.7167 11.667 14C11.667 15.2833 12.717 16.3333 14.0003 16.3333C15.2837 16.3333 16.3337 15.2833 16.3337 14C16.3337 12.7167 15.2837 11.6667 14.0003 11.6667ZM14.0003 4.66666C12.717 4.66666 11.667 5.71666 11.667 6.99999C11.667 8.28332 12.717 9.33332 14.0003 9.33332C15.2837 9.33332 16.3337 8.28332 16.3337 6.99999C16.3337 5.71666 15.2837 4.66666 14.0003 4.66666ZM14.0003 18.6667C12.717 18.6667 11.667 19.7167 11.667 21C11.667 22.2833 12.717 23.3333 14.0003 23.3333C15.2837 23.3333 16.3337 22.2833 16.3337 21C16.3337 19.7167 15.2837 18.6667 14.0003 18.6667Z" fill="#FFFAEB"/>
</svg>
