<svg width="317" height="22" viewBox="0 0 317 22" fill="none" xmlns="http://www.w3.org/2000/svg">
<path d="M212 0.833313V19.8333L225.222 10.3333L212 0.833313ZM229 19.8333V0.833313H225.222V19.8333H229Z" fill="#FFFAEB"/>
<path d="M151.333 0H157.833V21.6667H151.333V0ZM162.166 0H168.666V21.6667H162.166V0Z" fill="#FFFAEB"/>
<path d="M104 0.833313L90.7778 10.3333L104 19.8333V0.833313ZM90.7778 10.3333V0.833313H87V19.8333H90.7778V10.3333Z" fill="#FFFAEB"/>
<path d="M311.5 15.4H309.785L299.115 3.6597C299.012 3.54635 298.886 3.4558 298.746 3.39386C298.606 3.33192 298.454 3.29995 298.301 3.3H295V5.5H297.815L302.314 10.45L297.815 15.4011H295V17.6011H298.301C298.454 17.6012 298.606 17.5692 298.746 17.5072C298.886 17.4453 299.012 17.3548 299.115 17.2414L303.8 12.0857L308.485 17.2403C308.588 17.3537 308.714 17.4442 308.854 17.5061C308.994 17.5681 309.146 17.6001 309.299 17.6H311.5V20.9L317 16.5L311.5 12.1V15.4Z" fill="#FFFAEB"/>
<path d="M309.785 5.5H311.5V8.8L317 4.4682L311.5 0V3.3H309.299C309.146 3.29994 308.994 3.33191 308.854 3.39386C308.714 3.4558 308.588 3.54635 308.485 3.6597L304.78 7.7374L306.408 9.218L309.785 5.5Z" fill="#FFFAEB"/>
<path d="M22.95 2.33333C22.95 1.97971 22.8078 1.64057 22.5546 1.39052C22.3014 1.14048 21.958 1 21.6 1H10.8V3.66667H20.25V10.3333H16.2L21.5581 17L27 10.3333H22.95V2.33333ZM4.05 15.6667C4.05 16.0203 4.19223 16.3594 4.44541 16.6095C4.69858 16.8595 5.04196 17 5.4 17H16.2V14.3333H6.75V7.66667H10.8L5.4 1L0 7.66667H4.05V15.6667Z" fill="#FFFAEB"/>
</svg>
