<svg width="27" height="16" viewBox="0 0 27 16" fill="none" xmlns="http://www.w3.org/2000/svg">
<path d="M20.75 2.66667V2.16667H20.25H11.3V0.5H21.6C21.8274 0.5 22.0443 0.589288 22.2032 0.746267C22.362 0.903039 22.45 1.11434 22.45 1.33333V9.33333V9.83333H22.95H25.9464L21.5612 15.2056L17.2433 9.83333H20.25H20.75V9.33333V2.66667ZM6.25 13.3333V13.8333H6.75H15.7V15.5H5.4C5.17257 15.5 4.9557 15.4107 4.79676 15.2537C4.63803 15.097 4.55 14.8857 4.55 14.6667V6.66667V6.16667H4.05H1.04845L5.4 0.79438L9.75155 6.16667H6.75H6.25V6.66667V13.3333Z" fill="#96351E" stroke="#96351E"/>
</svg>
