<svg width="22" height="21" viewBox="0 0 22 21" fill="none" xmlns="http://www.w3.org/2000/svg">
<path d="M16.5 15.4H14.7851L4.1151 3.6597C4.01196 3.54635 3.88628 3.4558 3.7461 3.39386C3.60592 3.33192 3.45435 3.29995 3.3011 3.3H0V5.5H2.8149L7.3139 10.45L2.8149 15.4011H0V17.6011H3.3011C3.45435 17.6012 3.60592 17.5692 3.7461 17.5072C3.88628 17.4453 4.01196 17.3548 4.1151 17.2414L8.8 12.0857L13.4849 17.2403C13.588 17.3537 13.7137 17.4442 13.8539 17.5061C13.9941 17.5681 14.1456 17.6001 14.2989 17.6H16.5V20.9L22 16.5L16.5 12.1V15.4Z" fill="#FFFAEB"/>
<path d="M14.7853 5.5H16.5002V8.8L22.0002 4.4682L16.5002 0V3.3H14.2991C14.1458 3.29994 13.9942 3.33191 13.8541 3.39386C13.7139 3.4558 13.5882 3.54635 13.4851 3.6597L9.78027 7.7374L11.4083 9.218L14.7853 5.5Z" fill="#FFFAEB"/>
</svg>
