<svg width="22" height="21" viewBox="0 0 22 21" fill="none" xmlns="http://www.w3.org/2000/svg">
<path d="M17 15.9H16.5H14.7851H14.5639L14.4151 15.7363L3.74528 3.9962C3.74527 3.9962 3.74527 3.99619 3.74526 3.99618C3.68901 3.93436 3.62046 3.88498 3.54401 3.8512C3.46755 3.81741 3.38487 3.79997 3.30128 3.8L3.3011 3.8L0.5 3.8V5H2.8149H3.03612L3.18491 5.16371L7.68391 10.1137L7.98953 10.45L7.68394 10.7863L3.18494 15.7374L3.03615 15.9011H2.8149H0.5V17.1011H3.3011H3.30128C3.38487 17.1011 3.46755 17.0837 3.54401 17.0499C3.62042 17.0161 3.68895 16.9668 3.74519 16.905C3.74522 16.905 3.74525 16.9049 3.74528 16.9049L8.42996 11.7494L8.79996 11.3423L9.17001 11.7494L13.8547 16.9038L17 15.9ZM17 15.9V15.4V13.1403M17 15.9V13.1403M21.1996 16.5L17 19.8597V17.6V17.1H16.5H14.2989H14.2987C14.2151 17.1 14.1325 17.0826 14.056 17.0488L13.8539 17.5061L14.056 17.0488C13.9796 17.0151 13.9111 16.9657 13.8549 16.904L21.1996 16.5ZM21.1996 16.5L17 13.1403M21.1996 16.5L17 13.1403" fill="#96351E" stroke="#96351E"/>
<path d="M14.7853 5H14.564L14.4152 5.16383L11.3745 8.51147L10.4864 7.70374L13.8549 3.9962C13.8549 3.99617 13.855 3.99614 13.855 3.9961C13.9112 3.93432 13.9797 3.88496 14.0562 3.85119C14.1326 3.81741 14.2153 3.79997 14.2989 3.8H14.2991H16.5002H17.0002V3.3V1.0504L21.1998 4.46215L17.0002 7.76974V5.5V5H16.5002H14.7853Z" fill="#96351E" stroke="#96351E"/>
</svg>
