<svg width="19" height="18" viewBox="0 0 19 18" fill="none" xmlns="http://www.w3.org/2000/svg">
<path d="M7.47117 4.11043L9.30158 8.00857L11.1298 4.10938C11.7295 2.83029 12.8516 2.02065 13.7167 2.02065C15.2964 2.02065 16.5798 3.30362 16.5798 4.88261C16.5798 6.64823 15.7039 7.87574 13.9103 9.54414C13.5686 9.86193 13.1891 10.1976 12.7848 10.5552C11.7065 11.509 10.452 12.6185 9.27087 13.9596C8.09651 12.6634 6.87274 11.5931 5.82267 10.6746C5.38329 10.2903 4.97432 9.93258 4.61211 9.59606C2.88525 7.9917 2.02065 6.76572 2.02065 4.88261C2.02065 3.30385 3.30385 2.02065 4.88261 2.02065C5.74769 2.02065 6.87005 2.83025 7.47117 4.11043Z" fill="#96351E" stroke="#96351E" stroke-width="4.04129"/>
</svg>
