<svg width="135" height="58" viewBox="0 0 135 58" fill="none" xmlns="http://www.w3.org/2000/svg">
<line x1="3" y1="28.086" x2="3" y2="29.086" stroke="#96351E" stroke-width="2" stroke-linecap="round"/>
<line x1="7" y1="36.889" x2="7" y2="21.111" stroke="#96351E" stroke-width="2" stroke-linecap="round"/>
<line x1="11" y1="50.7323" x2="11" y2="7.26772" stroke="#96351E" stroke-width="2" stroke-linecap="round"/>
<line x1="15" y1="38.5999" x2="15" y2="19.4001" stroke="#96351E" stroke-width="2" stroke-linecap="round"/>
<line x1="19" y1="40.2896" x2="19" y2="17.7104" stroke="#96351E" stroke-width="2" stroke-linecap="round"/>
<line x1="23" y1="49.2271" x2="23" y2="8.77295" stroke="#96351E" stroke-width="2" stroke-linecap="round"/>
<line x1="27" y1="34.8233" x2="27" y2="23.1767" stroke="#96351E" stroke-width="2" stroke-linecap="round"/>
<line x1="31" y1="40.3736" x2="31" y2="17.6264" stroke="#96351E" stroke-width="2" stroke-linecap="round"/>
<line x1="35" y1="36.3911" x2="35" y2="21.6089" stroke="#96351E" stroke-width="2" stroke-linecap="round"/>
<line x1="39" y1="37.3487" x2="39" y2="20.6513" stroke="#96351E" stroke-width="2" stroke-linecap="round"/>
<line x1="43" y1="46.947" x2="43" y2="11.053" stroke="#96351E" stroke-width="2" stroke-linecap="round"/>
<line x1="47" y1="29.765" x2="47" y2="28.235" stroke="#96351E" stroke-width="2" stroke-linecap="round"/>
<line x1="51" y1="55.7221" x2="51" y2="2.27789" stroke="#96351E" stroke-width="2" stroke-linecap="round"/>
<line x1="55" y1="32.9357" x2="55" y2="25.0643" stroke="#96351E" stroke-width="2" stroke-linecap="round"/>
<line x1="59" y1="46.6258" x2="59" y2="11.3742" stroke="#96351E" stroke-width="2" stroke-linecap="round"/>
<line x1="63" y1="38.8802" x2="63" y2="19.1198" stroke="#96351E" stroke-width="2" stroke-linecap="round"/>
<line x1="67" y1="55.8786" x2="67" y2="2.12136" stroke="#96351E" stroke-width="2" stroke-linecap="round"/>
<line x1="71" y1="54.836" x2="71" y2="3.16397" stroke="#96351E" stroke-width="2" stroke-linecap="round"/>
<line x1="75" y1="51.8401" x2="75" y2="6.15992" stroke="#96351E" stroke-width="2" stroke-linecap="round"/>
<line x1="79" y1="37.5971" x2="79" y2="20.4029" stroke="#96351E" stroke-width="2" stroke-linecap="round"/>
<line x1="83" y1="50.0208" x2="83" y2="7.97919" stroke="#96351E" stroke-width="2" stroke-linecap="round"/>
<line x1="87" y1="53.8637" x2="87" y2="4.13626" stroke="#96351E" stroke-width="2" stroke-linecap="round"/>
<line x1="91" y1="38.6722" x2="91" y2="19.3278" stroke="#96351E" stroke-width="2" stroke-linecap="round"/>
<line x1="95" y1="34.4691" x2="95" y2="23.5309" stroke="#96351E" stroke-width="2" stroke-linecap="round"/>
<line x1="99" y1="28.2461" x2="99" y2="29.2461" stroke="#96351E" stroke-width="2" stroke-linecap="round"/>
<line x1="103" y1="32.4444" x2="103" y2="25.5556" stroke="#96351E" stroke-width="2" stroke-linecap="round"/>
<line x1="107" y1="46.1758" x2="107" y2="11.8242" stroke="#96351E" stroke-width="2" stroke-linecap="round"/>
<line x1="111" y1="50.4316" x2="111" y2="7.56837" stroke="#96351E" stroke-width="2" stroke-linecap="round"/>
<line x1="115" y1="36.1344" x2="115" y2="21.8656" stroke="#96351E" stroke-width="2" stroke-linecap="round"/>
<line x1="119" y1="33.2245" x2="119" y2="24.7755" stroke="#96351E" stroke-width="2" stroke-linecap="round"/>
<line x1="123" y1="55.1209" x2="123" y2="2.87914" stroke="#96351E" stroke-width="2" stroke-linecap="round"/>
<line x1="127" y1="32.6467" x2="127" y2="25.3533" stroke="#96351E" stroke-width="2" stroke-linecap="round"/>
<line x1="131" y1="38.0421" x2="131" y2="19.9579" stroke="#96351E" stroke-width="2" stroke-linecap="round"/>
</svg>
